<?xml version="1.0" standalone="no"?>
<!DOCTYPE svg PUBLIC "-//W3C//DTD SVG 20010904//EN"
 "http://www.w3.org/TR/2001/REC-SVG-20010904/DTD/svg10.dtd">
<svg version="1.0" xmlns="http://www.w3.org/2000/svg"
 width="342.4px" height="342.4px" viewBox="0 0 856.000000 856.000000"
 preserveAspectRatio="xMidYMid meet">
<metadata>
Created by potrace 1.15, written by Peter Selinger 2001-2017
</metadata>
<g transform="translate(-423.000000,1154.000000) scale(0.100000,-0.100000)"
fill="#000000" stroke="none">
<path d="M7905 11526 c-127 -31 -127 -30 -140 -362 -12 -303 -10 -296 -86
-335 -60 -30 -179 -59 -244 -59 -78 0 -77 -1 -230 245 -64 105 -133 205 -151
223 -42 40 -86 42 -179 7 -82 -30 -121 -57 -141 -97 -19 -36 -17 -44 52 -343
48 -206 52 -249 28 -283 -20 -29 -119 -96 -197 -133 -66 -31 -109 -36 -143
-16 -12 7 -99 84 -194 172 -199 184 -213 195 -260 195 -65 0 -187 -87 -221
-158 -27 -54 -28 -51 116 -324 81 -152 115 -228 115 -251 0 -93 -218 -295
-293 -271 -12 4 -119 59 -237 122 -126 67 -231 117 -254 120 -55 7 -98 -19
-157 -97 -60 -81 -75 -127 -56 -173 8 -18 94 -118 191 -223 97 -104 179 -200
183 -213 17 -69 -109 -297 -182 -328 -32 -13 -50 -10 -295 45 -275 63 -298 64
-342 24 -28 -25 -64 -99 -84 -171 -16 -57 -16 -62 2 -98 16 -33 49 -58 239
-176 121 -75 228 -147 238 -159 24 -30 22 -106 -6 -209 -27 -97 -45 -136 -77
-165 -20 -18 -43 -21 -249 -28 -308 -11 -326 -13 -362 -45 -35 -33 -59 -118
-59 -209 0 -58 3 -66 33 -98 29 -31 55 -41 267 -106 129 -39 247 -77 261 -85
43 -22 59 -78 59 -209 0 -136 -15 -184 -63 -209 -18 -8 -131 -46 -252 -82
-251 -76 -269 -84 -290 -124 -27 -52 -14 -197 24 -268 24 -46 55 -52 333 -63
293 -11 294 -11 335 -85 27 -50 63 -185 63 -240 0 -77 -8 -85 -192 -200 -264
-165 -288 -182 -304 -220 -18 -44 -5 -102 44 -197 37 -73 68 -97 122 -97 16 0
139 25 271 56 156 35 252 53 270 49 16 -4 46 -26 69 -53 52 -59 130 -213 130
-258 0 -38 -3 -42 -205 -259 -72 -77 -141 -153 -153 -169 -33 -43 -29 -100 9
-162 59 -94 120 -144 175 -144 16 0 129 53 265 125 130 69 247 125 258 125 37
0 83 -30 159 -104 86 -83 114 -125 114 -169 0 -23 -37 -104 -121 -263 -150
-285 -151 -290 -61 -375 99 -95 179 -121 236 -77 16 12 88 76 159 142 72 66
153 142 182 168 46 42 57 48 97 48 52 0 180 -61 247 -118 76 -65 76 -66 13
-338 -30 -131 -55 -259 -55 -284 -1 -39 4 -49 38 -81 49 -46 142 -83 210 -83
70 -1 79 9 242 271 138 223 148 233 221 233 41 0 177 -37 236 -64 80 -37 82
-45 92 -346 6 -166 13 -264 22 -281 24 -52 102 -79 225 -80 71 -1 105 14 126
53 6 12 45 130 86 262 45 148 81 249 94 262 28 30 91 44 194 44 103 0 166 -14
193 -43 12 -13 49 -117 93 -257 80 -261 88 -283 125 -306 34 -23 195 -15 250
12 74 37 75 41 86 330 10 300 13 311 85 347 55 28 201 67 249 67 66 0 79 -15
216 -234 163 -262 171 -271 242 -270 42 0 71 9 132 40 88 44 116 75 116 127 0
19 -26 145 -57 280 -54 237 -56 247 -41 279 20 41 98 100 193 145 79 38 130
44 166 20 12 -9 105 -92 205 -186 197 -183 220 -197 283 -170 50 20 148 97
169 132 36 59 29 84 -99 327 -65 124 -121 235 -125 248 -12 36 27 101 107 181
74 75 129 111 169 111 12 0 125 -54 251 -121 125 -66 243 -123 261 -126 58 -9
119 39 188 146 35 57 38 115 6 157 -12 16 -79 90 -148 164 -227 245 -213 226
-207 277 11 104 149 303 209 303 14 0 133 -25 264 -55 132 -30 253 -55 271
-55 46 0 94 46 128 122 38 83 44 163 17 199 -11 14 -120 87 -242 164 -121 76
-226 147 -232 158 -6 13 -8 50 -5 96 10 121 61 256 107 281 10 5 132 14 271
20 140 6 266 13 281 16 46 9 75 49 92 124 29 125 15 205 -41 234 -16 8 -134
47 -263 86 -128 39 -241 77 -251 83 -39 24 -53 75 -53 197 -1 121 11 175 43
204 11 10 133 53 272 96 276 85 291 94 305 167 8 45 -10 173 -31 213 -31 61
-43 63 -341 75 -304 12 -296 10 -335 87 -29 56 -61 183 -61 244 -1 44 4 60 23
80 12 13 115 81 227 151 112 70 215 141 229 157 21 26 25 38 21 82 -6 67 -67
196 -104 221 -41 26 -82 22 -328 -36 -275 -64 -287 -64 -340 -8 -55 57 -136
216 -136 267 0 42 -2 39 245 305 124 133 135 149 135 198 0 42 -59 136 -118
190 -69 62 -87 58 -353 -83 -161 -85 -238 -120 -261 -120 -46 0 -110 42 -187
125 -69 75 -96 124 -86 163 3 14 58 122 122 241 140 261 146 286 87 351 -61
67 -148 120 -200 120 -50 0 -48 1 -254 -190 -198 -184 -206 -190 -244 -190
-42 0 -196 76 -252 124 -74 63 -74 62 -10 340 64 279 67 311 31 350 -62 67
-236 117 -289 83 -13 -9 -84 -112 -157 -229 -73 -117 -143 -223 -156 -235 -31
-32 -114 -31 -229 3 -105 30 -148 54 -163 92 -6 15 -15 144 -21 286 -12 301
-14 309 -94 339 -26 9 -81 20 -120 24 -84 7 -132 -10 -158 -55 -8 -15 -49
-135 -89 -267 -55 -178 -80 -246 -97 -262 -30 -27 -90 -38 -207 -37 -98 1
-153 14 -179 43 -10 11 -51 128 -91 261 -41 133 -82 254 -90 267 -33 50 -123
65 -230 39z"/>
</g>
</svg>
