<?xml version="1.0" standalone="no"?>
<!DOCTYPE svg PUBLIC "-//W3C//DTD SVG 20010904//EN"
 "http://www.w3.org/TR/2001/REC-SVG-20010904/DTD/svg10.dtd">
<svg version="1.0" xmlns="http://www.w3.org/2000/svg"
 width="614.000000pt" height="614.000000pt" viewBox="0 0 614.000000 614.000000"
 preserveAspectRatio="xMidYMid meet">
<metadata>
Created by potrace 1.15, written by Peter Selinger 2001-2017
</metadata>
<g transform="translate(0.000000,614.000000) scale(0.100000,-0.100000)"
fill="#000000" stroke="none">
<path d="M2815 6133 c-51 -6 -106 -35 -120 -63 -8 -15 -30 -143 -50 -286 -38
-279 -52 -333 -93 -363 -55 -38 -185 -70 -236 -57 -43 11 -88 58 -256 270 -88
112 -172 208 -186 215 -41 18 -85 13 -154 -20 -88 -41 -126 -72 -140 -113 -10
-31 -3 -65 61 -314 52 -205 70 -289 65 -314 -8 -46 -54 -98 -129 -148 -97 -66
-110 -62 -407 103 -151 85 -256 137 -273 137 -15 0 -40 -6 -55 -14 -36 -18
-125 -113 -147 -156 -34 -65 -22 -89 159 -330 166 -220 186 -252 186 -293 0
-70 -75 -200 -133 -232 -41 -22 -96 -19 -417 19 -194 23 -207 23 -240 8 -45
-22 -75 -68 -101 -155 -25 -83 -20 -130 14 -165 13 -13 129 -86 258 -161 284
-167 283 -166 277 -296 -6 -100 -28 -160 -73 -189 -14 -9 -144 -51 -288 -92
-144 -41 -272 -82 -285 -90 -40 -27 -55 -79 -49 -170 7 -93 25 -146 59 -168
13 -8 113 -27 243 -45 358 -51 353 -50 390 -83 39 -33 72 -112 81 -192 11 -89
-1 -103 -250 -301 -123 -97 -228 -187 -235 -201 -16 -37 -14 -77 9 -135 28
-71 75 -136 112 -155 37 -19 39 -19 328 56 291 76 297 77 348 51 45 -23 116
-105 139 -161 28 -64 15 -100 -131 -360 -84 -152 -136 -256 -136 -273 0 -41
22 -76 82 -133 65 -62 105 -84 152 -84 31 0 69 25 268 175 152 114 244 177
265 181 47 9 112 -11 178 -55 107 -70 109 -85 70 -411 -32 -268 -32 -310 0
-348 35 -41 145 -85 217 -86 47 -1 61 3 82 23 15 14 83 122 153 240 70 119
137 230 150 247 35 47 70 58 168 52 92 -6 147 -27 177 -68 10 -14 52 -144 94
-290 41 -146 82 -276 90 -288 26 -40 79 -55 169 -49 92 5 147 25 170 60 11 17
29 118 55 299 21 150 42 282 46 293 21 59 110 108 218 121 90 11 106 -3 292
-237 91 -114 179 -219 195 -233 45 -38 99 -35 189 11 84 43 130 91 130 133 0
17 -11 72 -24 123 -106 398 -117 448 -106 487 13 47 80 116 151 155 81 44 99
38 380 -119 176 -97 255 -136 279 -136 45 0 93 32 150 101 59 71 75 118 55
165 -7 18 -86 128 -174 244 -92 121 -166 228 -172 250 -9 30 -8 47 5 86 22 66
74 143 115 171 44 30 68 29 380 -7 285 -33 302 -31 341 32 27 43 60 151 60
194 0 75 1 75 -290 244 -225 131 -245 145 -264 185 -32 68 -10 224 40 276 34
36 54 43 342 124 128 36 244 72 257 81 35 23 48 74 43 173 -4 97 -25 147 -70
169 -15 7 -152 30 -304 52 -212 30 -284 44 -304 58 -36 27 -69 91 -84 164 -15
75 -7 130 25 164 13 14 115 98 227 186 111 88 210 171 219 185 27 41 19 103
-22 183 -39 72 -79 116 -118 125 -12 3 -119 -19 -237 -50 -344 -89 -346 -89
-392 -76 -84 25 -187 173 -173 248 3 21 68 148 143 282 96 173 136 254 136
277 0 44 -43 105 -112 159 -61 48 -110 64 -152 48 -15 -5 -117 -78 -228 -161
-111 -84 -216 -161 -234 -172 -48 -29 -95 -25 -176 15 -75 38 -127 88 -139
133 -3 15 8 154 26 309 31 270 32 283 16 317 -20 42 -105 89 -198 108 -100 21
-108 14 -272 -264 -77 -131 -152 -250 -168 -265 -26 -27 -31 -28 -130 -28 -87
0 -108 4 -144 23 -24 12 -50 36 -59 54 -9 17 -50 149 -91 292 -50 175 -81 268
-95 284 -35 36 -108 49 -213 35z"/>
</g>
</svg>
